<svg xmlns="http://www.w3.org/2000/svg" xmlns:xlink="http://www.w3.org/1999/xlink"><symbol id="icon-gas" viewBox="0 0 24 22">
<rect x="1.74597" y="0.75" width="10.9495" height="19.9131" rx="1.25" stroke="#48494D" stroke-width="1.5"/>
<mask id="path-2-inside-1" fill="white">
<rect x="3.09686" y="3.0968" width="8.2583" height="7.22601" rx="1"/>
</mask>
<rect x="3.09686" y="3.0968" width="8.2583" height="7.22601" rx="1" stroke="#48494D" stroke-width="3" mask="url(#path-2-inside-1)"/>
<path d="M12.9474 10.834V10.834C14.1306 10.834 15.0897 11.7931 15.0897 12.9763V15.6395C15.0897 16.985 15.6253 19.1298 17.589 18.9072C19.5527 18.6846 19.9098 16.6819 19.9098 15.255C19.9098 13.8282 19.1957 10.6418 19.3742 7.95073C19.5527 5.25966 21.1594 2.95304 22.4091 1.99194" stroke="#48494D" stroke-width="1.5" stroke-linecap="round" stroke-linejoin="round"/>
<rect x="0.497979" y="20.506" width="13.4454" height="0.995959" rx="0.497979" fill="#48494D" stroke="#48494D" stroke-width="0.995959"/>
<path d="M20.4181 5.47778V5.47778C21.3327 5.70145 21.9439 6.56319 21.8527 7.50029L21.7677 8.37356C21.6801 9.27332 20.9237 9.9596 20.0197 9.9596V9.9596" stroke="#48494D" stroke-width="1.5"/>
</symbol><symbol id="icon-horse" viewBox="0 0 32 21">
<path d="M24.7616 1.48013C25.4368 1.48013 26.1246 1.52925 26.789 1.57747C27.4347 1.6237 28.1016 1.6721 28.738 1.6721C28.9744 1.6721 29.1911 1.66578 29.4009 1.65242C29.4045 1.65206 29.4081 1.65206 29.4114 1.65206C29.4808 1.65206 29.5452 1.68836 29.5794 1.74939C29.6154 1.81332 29.6125 1.89206 29.5708 1.95274C29.1558 2.56078 29.1986 3.95224 29.2443 5.42537C29.3052 7.39184 29.3678 9.42533 28.4291 10.3969C28.0761 10.7623 27.6024 10.9472 27.0215 10.9472C26.4611 10.9472 26.1271 10.0448 25.7409 9.00041C25.3925 8.05987 24.9596 6.88928 24.4492 6.88928C22.7281 6.88928 22.1137 9.92053 23.5292 12.4219L26.6126 17.7019C26.934 18.252 26.7494 18.9625 26.2013 19.285C26.0245 19.3891 25.8233 19.4443 25.6196 19.4443C25.2784 19.4443 24.9578 19.2948 24.7378 19.0347L20.195 14.1678C18.5751 13.8392 17.0465 13.6723 15.6504 13.6723C14.0763 13.6723 12.326 13.8825 10.446 14.2972L6.01009 19.0346C5.79 19.295 5.47004 19.4442 5.12953 19.4442C4.85942 19.4442 4.59668 19.3478 4.38918 19.1733C3.95639 18.8089 3.84947 18.1902 4.13562 17.7018L7.0461 12.7177C7.26061 9.92088 7.01029 9.01141 6.76158 8.74178C6.68708 8.66124 6.62032 8.65167 6.57641 8.65167C6.32033 8.65167 6.10186 8.74847 5.90822 8.94676C5.20837 9.66605 5.05612 11.5431 5.07679 12.5584C5.07787 12.5674 5.07859 12.5772 5.07859 12.5869C5.07859 12.6931 4.99311 12.7795 4.88694 12.7795H4.8855C4.88118 12.7795 4.87704 12.7791 4.87272 12.7791C4.67801 12.7654 4.49156 12.7578 4.3109 12.7502C3.54283 12.7184 2.93619 12.6931 2.61189 12.2792C2.38821 11.9935 2.34178 11.5677 2.46703 10.9396C2.47224 10.9089 2.4789 10.8673 2.48628 10.8208C2.55881 10.364 2.70925 9.41464 3.23006 8.57238C3.88458 7.51393 4.8963 6.97576 6.23338 6.97576C6.34099 6.97576 6.45041 6.97919 6.5618 6.98623C6.99766 7.01314 7.35147 7.20475 7.66334 7.37343C7.95596 7.53199 8.23272 7.68224 8.5401 7.68224C8.68424 7.68224 8.82947 7.6501 8.98314 7.58454C10.0515 7.13036 11.2619 6.90967 12.6823 6.90967C13.2641 6.90967 13.89 6.94615 14.5962 7.02128C14.8033 7.04313 15.0038 7.05451 15.1922 7.05451H15.1929C17.0015 7.05415 17.7325 6.02783 18.5798 4.83883C19.2316 3.92377 19.9701 2.88752 21.3069 2.19693C22.2548 1.70761 23.3523 1.47941 24.7617 1.47941L24.7616 1.48013ZM24.7617 0C23.1093 0 21.7974 0.27992 20.6324 0.880917C18.9775 1.73602 18.0921 2.97921 17.3806 3.97807C16.5355 5.16419 16.1925 5.57432 15.1926 5.57469C15.0559 5.57469 14.9078 5.5662 14.7517 5.54959C13.9925 5.46904 13.3159 5.42985 12.6824 5.42985C11.1182 5.42985 9.76225 5.67095 8.54244 6.16612C8.48557 6.13723 8.41971 6.10147 8.36464 6.07185C7.98403 5.8658 7.41229 5.55661 6.65359 5.50931C6.51448 5.50046 6.37303 5.49594 6.2334 5.49594C4.37765 5.49594 2.90597 6.29002 1.97732 7.79236C1.30069 8.88676 1.11137 10.0781 1.03058 10.587L1.02104 10.6466L1.01618 10.677C0.932863 11.0967 0.721769 12.2593 1.45296 13.193C2.19744 14.1432 3.33587 14.1902 4.25077 14.2278C4.31627 14.2307 4.38268 14.2336 4.45016 14.2365L2.86383 16.9533C2.21256 18.0654 2.45551 19.4762 3.44202 20.3065C3.91421 20.7038 4.51348 20.9231 5.12967 20.9231C5.88856 20.9231 6.6057 20.5962 7.10472 20.0252L11.2042 15.6472C12.8123 15.3178 14.3059 15.151 15.6508 15.151C16.8178 15.151 18.0926 15.2777 19.4458 15.5288L23.6425 20.0236C24.1417 20.5954 24.8594 20.9229 25.6199 20.9229C26.0856 20.9229 26.5449 20.7976 26.9473 20.5603C28.1965 19.8257 28.6173 18.2076 27.8848 16.9532L24.8063 11.6827C24.2729 10.7364 24.1718 9.82046 24.2351 9.18406C24.2812 9.30577 24.3229 9.41955 24.3586 9.51472C24.8632 10.8794 25.4351 12.4261 27.0212 12.4261C28.002 12.4261 28.855 12.0804 29.487 11.4263C30.8601 10.005 30.7874 7.6538 30.7176 5.37994C30.6917 4.54038 30.6481 3.14459 30.8061 2.75953C31.1441 2.24396 31.1682 1.56454 30.863 1.02204C30.5693 0.497954 30.0129 0.172002 29.4111 0.172002C29.3798 0.172002 29.3434 0.173446 29.3092 0.175433C29.1303 0.186449 28.9435 0.192047 28.7377 0.192047C28.16 0.192047 27.5258 0.146537 26.9122 0.102473C26.241 0.054022 25.4984 2.39849e-05 24.7631 2.39849e-05" fill="#48494D"/>
</symbol><symbol id="icon-logo" viewBox="0 0 134 55">
<path d="M79.6396 45L76.7412 36.6533H76.6865C76.764 37.8929 76.8027 39.055 76.8027 40.1396V45H75.3193V35.0059H77.623L80.3984 42.9561H80.4395L83.2969 35.0059H85.6074V45H84.0352V40.0576C84.0352 39.5609 84.0465 38.9137 84.0693 38.1162C84.0967 37.3187 84.1195 36.8356 84.1377 36.667H84.083L81.082 45H79.6396ZM98.9323 39.9893C98.9323 41.6162 98.5244 42.8809 97.7087 43.7832C96.8975 44.6855 95.7468 45.1367 94.2565 45.1367C92.7481 45.1367 91.5882 44.6901 90.777 43.7969C89.9704 42.8991 89.5671 41.6253 89.5671 39.9756C89.5671 38.3258 89.9727 37.0589 90.7839 36.1748C91.5996 35.2907 92.7617 34.8486 94.2702 34.8486C95.7559 34.8486 96.9043 35.2975 97.7155 36.1953C98.5267 37.0931 98.9323 38.3577 98.9323 39.9893ZM91.3034 39.9893C91.3034 41.2197 91.5518 42.154 92.0485 42.792C92.5453 43.4255 93.2813 43.7422 94.2565 43.7422C95.2272 43.7422 95.9587 43.4277 96.4509 42.7988C96.9476 42.1699 97.196 41.2334 97.196 39.9893C97.196 38.7633 96.9499 37.8337 96.4577 37.2002C95.9701 36.5667 95.2409 36.25 94.2702 36.25C93.2904 36.25 92.5498 36.5667 92.0485 37.2002C91.5518 37.8337 91.3034 38.7633 91.3034 39.9893ZM106.351 45H104.717V36.4072H101.778V35.0059H109.29V36.4072H106.351V45ZM121.522 39.9893C121.522 41.6162 121.114 42.8809 120.298 43.7832C119.487 44.6855 118.336 45.1367 116.846 45.1367C115.337 45.1367 114.177 44.6901 113.366 43.7969C112.56 42.8991 112.156 41.6253 112.156 39.9756C112.156 38.3258 112.562 37.0589 113.373 36.1748C114.189 35.2907 115.351 34.8486 116.859 34.8486C118.345 34.8486 119.494 35.2975 120.305 36.1953C121.116 37.0931 121.522 38.3577 121.522 39.9893ZM113.893 39.9893C113.893 41.2197 114.141 42.154 114.638 42.792C115.134 43.4255 115.87 43.7422 116.846 43.7422C117.816 43.7422 118.548 43.4277 119.04 42.7988C119.537 42.1699 119.785 41.2334 119.785 39.9893C119.785 38.7633 119.539 37.8337 119.047 37.2002C118.559 36.5667 117.83 36.25 116.859 36.25C115.88 36.25 115.139 36.5667 114.638 37.2002C114.141 37.8337 113.893 38.7633 113.893 39.9893Z" fill="#48494D"/>
<path d="M84.4834 24L83.5518 20.9414H78.8672L77.9355 24H75L79.5352 11.0977H82.8662L87.4189 24H84.4834ZM82.9014 18.6562C82.04 15.8848 81.5537 14.3174 81.4424 13.9541C81.3369 13.5908 81.2607 13.3037 81.2139 13.0928C81.0205 13.8428 80.4668 15.6973 79.5527 18.6562H82.9014ZM98.715 11.1504H101.466L97.0978 24H94.1271L89.7677 11.1504H92.5187L94.9357 18.7969C95.0705 19.248 95.2082 19.7754 95.3488 20.3789C95.4953 20.9766 95.5861 21.3926 95.6213 21.627C95.6857 21.0879 95.9054 20.1445 96.2804 18.7969L98.715 11.1504ZM110.389 24H107.664V13.418H104.175V11.1504H113.878V13.418H110.389V24ZM129.859 17.5576C129.859 19.6846 129.332 21.3193 128.277 22.4619C127.222 23.6045 125.71 24.1758 123.742 24.1758C121.773 24.1758 120.261 23.6045 119.207 22.4619C118.152 21.3193 117.624 19.6787 117.624 17.54C117.624 15.4014 118.152 13.7695 119.207 12.6445C120.267 11.5137 121.785 10.9482 123.759 10.9482C125.734 10.9482 127.243 11.5166 128.286 12.6533C129.334 13.79 129.859 15.4248 129.859 17.5576ZM120.481 17.5576C120.481 18.9932 120.753 20.0742 121.298 20.8008C121.843 21.5273 122.658 21.8906 123.742 21.8906C125.916 21.8906 127.002 20.4463 127.002 17.5576C127.002 14.6631 125.921 13.2158 123.759 13.2158C122.675 13.2158 121.858 13.582 121.307 14.3145C120.756 15.041 120.481 16.1221 120.481 17.5576Z" fill="#48494D"/>
<path d="M42.1547 27.269L35.3713 26.719C34.3621 26.6375 33.6095 25.7537 33.691 24.7445C33.7295 24.2623 33.9578 23.815 34.3254 23.4997L39.4899 19.0694C37.6189 16.4074 34.9184 14.4411 31.8109 13.4778L29.1902 19.7662C28.8005 20.7012 27.7272 21.1421 26.7922 20.7525C26.3457 20.5664 25.991 20.2116 25.8058 19.7662L23.1915 13.4834C20.084 14.4468 17.3835 16.4131 15.5126 19.075L20.6771 23.5053C21.4461 24.1643 21.5351 25.3213 20.876 26.0903C20.5608 26.4579 20.1133 26.6852 19.6312 26.7246L12.8479 27.2746C12.8479 27.3525 12.8359 27.4277 12.8359 27.5056C12.8341 30.6818 13.8708 33.7719 15.7876 36.3056L21.591 32.7654C22.4555 32.2383 23.5838 32.5114 24.1109 33.3759C24.3631 33.7893 24.4409 34.2852 24.3291 34.7555L22.7543 41.3739C25.8297 42.4417 29.1756 42.4417 32.2509 41.3739L30.6761 34.7555C30.4414 33.771 31.0492 32.7819 32.0346 32.5472C32.5049 32.4354 33.0007 32.5133 33.4142 32.7654L39.2149 36.3001C41.1316 33.7664 42.1683 30.6763 42.1665 27.5001C42.1666 27.4221 42.1565 27.3469 42.1547 27.269ZM27.5 30.25C25.981 30.25 24.75 29.0189 24.75 27.5C24.75 25.981 25.981 24.75 27.5 24.75C29.0189 24.75 30.25 25.981 30.25 27.5C30.25 29.0189 29.0189 30.25 27.5 30.25Z" fill="#D12136"/>
<path d="M27.5 0.916626C12.8186 0.916626 0.916626 12.8186 0.916626 27.5C0.916626 42.1813 12.8186 54.0834 27.5 54.0834C42.1813 54.0834 54.0834 42.1813 54.0834 27.5C54.0834 12.8186 42.1813 0.916626 27.5 0.916626ZM27.5 42.1666C19.3994 42.1666 12.8334 35.6006 12.8334 27.5C12.8334 19.3994 19.3994 12.8334 27.5 12.8334C35.6006 12.8334 42.1666 19.3994 42.1666 27.5C42.1666 35.6006 35.6006 42.1666 27.5 42.1666Z" fill="#2B2733"/>
<path d="M44.8673 7.38269C54.462 18.4899 53.2374 35.2723 42.13 44.867C32.1512 53.4873 17.3617 53.4873 7.38281 44.867C16.973 55.9788 33.7553 57.2127 44.8671 47.6216C55.979 38.0306 57.2128 21.2491 47.6218 10.1373C46.7721 9.15279 45.8517 8.2325 44.8673 7.38269Z" fill="#1A1721"/>
<path d="M19.2634 5.11546L21.0071 4.54895L20.1573 1.93332L18.4136 2.49983L19.2634 5.11546Z" fill="#555160"/>
<path d="M34.8445 53.0626L36.5883 52.4961L35.7385 49.8805L33.9948 50.447L34.8445 53.0626Z" fill="#3B3944"/>
<path d="M28.4167 0.916626H26.5834V3.66663H28.4167V0.916626Z" fill="#555160"/>
<path d="M28.4167 51.3334H26.5834V54.0834H28.4167V51.3334Z" fill="#3B3944"/>
<path d="M12.7497 8.75734L14.2327 7.67957L12.616 5.45518L11.1331 6.53295L12.7497 8.75734Z" fill="#555160"/>
<path d="M42.3819 49.5443L43.8649 48.4666L42.2482 46.2422L40.7653 47.3199L42.3819 49.5443Z" fill="#3B3944"/>
<path d="M7.67906 14.2333L8.75684 12.7504L6.53245 11.1337L5.45467 12.6166L7.67906 14.2333Z" fill="#555160"/>
<path d="M48.4681 43.8666L49.5459 42.3837L47.3215 40.767L46.2437 42.2499L48.4681 43.8666Z" fill="#3B3944"/>
<path d="M4.54848 21.0074L5.11499 19.2637L2.49936 18.4139L1.93285 20.1576L4.54848 21.0074Z" fill="#555160"/>
<path d="M52.4999 36.5916L53.0664 34.8479L50.4508 33.9981L49.8843 35.7418L52.4999 36.5916Z" fill="#3B3944"/>
<path d="M3.66663 26.5834H0.916626V28.4167H3.66663V26.5834Z" fill="#555160"/>
<path d="M54.0834 26.5834H51.3334V28.4167H54.0834V26.5834Z" fill="#3B3944"/>
<path d="M2.5046 36.5861L5.11975 35.7361L4.55309 33.9926L1.93794 34.8426L2.5046 36.5861Z" fill="#555160"/>
<path d="M6.53001 43.865L8.75476 42.2485L7.67711 40.7653L5.45236 42.3818L6.53001 43.865Z" fill="#555160"/>
<path d="M42.2492 8.75698L43.8656 6.53223L42.3824 5.45457L40.766 7.67932L42.2492 8.75698Z" fill="#555160"/>
<path d="M35.7394 5.11576L36.5894 2.50061L34.8459 1.93395L33.9959 4.5491L35.7394 5.11576Z" fill="#555160"/>
<path d="M53.0659 20.1575L52.4985 18.4159L50.7019 18.9998C50.8348 19.5994 50.9504 20.2044 51.042 20.8176L53.0659 20.1575Z" fill="#3B3944"/>
<path d="M49.545 12.6161L48.4678 11.1329L47.8427 11.5913C48.1479 12.1257 48.4422 12.6684 48.7107 13.2266L49.545 12.6161Z" fill="#3B3944"/>
<path d="M11.1329 48.4679L12.6161 49.545L13.2229 48.7108C12.6647 48.4423 12.1229 48.1481 11.5877 47.8428L11.1329 48.4679Z" fill="#3B3944"/>
<path d="M18.4131 52.4985L20.1547 53.0659L20.8119 51.0419C20.1987 50.9503 19.5937 50.8347 18.9941 50.7018L18.4131 52.4985Z" fill="#3B3944"/>
<path d="M50.4506 21.0072L51.0418 20.8147C50.9502 20.2015 50.8346 19.5965 50.7017 18.9969L49.8832 19.2628L50.4506 21.0072Z" fill="#555160"/>
<path d="M47.321 14.233L48.7107 13.2246C48.4422 12.6664 48.148 12.1246 47.8427 11.5894L46.243 12.7517L47.321 14.233Z" fill="#555160"/>
<path d="M12.75 46.243L11.5876 47.8427C12.1221 48.148 12.6648 48.4422 13.2229 48.7107L14.2313 47.321L12.75 46.243Z" fill="#555160"/>
<path d="M19.2628 49.8832L18.9969 50.7017C19.5965 50.8346 20.2015 50.9502 20.8147 51.0418L21.0072 50.4506L19.2628 49.8832Z" fill="#555160"/>
<path d="M27.5 8.25C16.8685 8.25 8.25 16.8685 8.25 27.5C8.25 38.1315 16.8685 46.75 27.5 46.75C38.1315 46.75 46.75 38.1315 46.75 27.5C46.75 16.8685 38.1315 8.25 27.5 8.25ZM27.5 42.1666C19.3994 42.1666 12.8334 35.6006 12.8334 27.5C12.8334 19.3994 19.3994 12.8334 27.5 12.8334C35.6006 12.8334 42.1666 19.3994 42.1666 27.5C42.1666 35.6006 35.6006 42.1666 27.5 42.1666Z" fill="#555160"/>
<path d="M40.6313 13.4512C47.8941 21.1989 47.5017 33.3676 39.7541 40.6313C32.3575 47.5649 20.8488 47.5649 13.4521 40.6313C20.6938 48.4 32.8625 48.8272 40.6322 41.5855C48.402 34.3438 48.8282 22.1751 41.5865 14.4054C41.2794 14.0764 40.9603 13.7583 40.6313 13.4512Z" fill="#3B3944"/>
<path d="M35.8417 15.4578C34.607 14.5962 33.2466 13.9297 31.8083 13.4833L31.3032 14.6942C32.8405 14.7748 34.3631 15.0306 35.8417 15.4578Z" fill="#9C1928"/>
<path d="M24.0827 15.6309L23.1918 13.4832C20.0843 14.4466 17.3838 16.4129 15.5128 19.0748L16.5918 20.0007C18.7422 18.0171 21.2978 16.5265 24.0827 15.6309Z" fill="#9C1928"/>
<path d="M27.5 7.33337C16.3625 7.33337 7.33337 16.3625 7.33337 27.5C7.33337 38.6375 16.3625 47.6666 27.5 47.6666C38.6375 47.6666 47.6666 38.6375 47.6666 27.5C47.6539 16.3671 38.6329 7.34616 27.5 7.33337ZM27.5 45.8334C17.3745 45.8334 9.16664 37.6255 9.16664 27.5C9.16664 17.3745 17.3745 9.16664 27.5 9.16664C37.6255 9.16664 45.8334 17.3745 45.8334 27.5C45.8214 37.62 37.62 45.8214 27.5 45.8334Z" fill="black"/>
<path d="M27.5 11.9166C18.8935 11.9166 11.9166 18.8934 11.9166 27.5C11.9166 36.1066 18.8935 43.0834 27.5 43.0834C36.1065 43.0834 43.0834 36.1065 43.0834 27.5C43.0741 18.8971 36.1029 11.9259 27.5 11.9166ZM41.1877 26.2716L35.4466 25.8078C34.9425 25.7656 34.5676 25.3219 34.6097 24.8178C34.6299 24.5786 34.7426 24.3567 34.925 24.2L39.2874 20.4572C40.3535 22.2264 41.0025 24.2147 41.1877 26.2716ZM30.5608 14.1057L28.3461 19.4223C28.1508 19.8898 27.6145 20.1108 27.147 19.9155C26.9242 19.8229 26.7464 19.6451 26.6538 19.4223L24.4391 14.1057C26.4522 13.6317 28.5478 13.6317 30.5608 14.1057ZM15.7108 20.4554L20.075 24.2C20.459 24.529 20.504 25.1085 20.174 25.4925C20.0163 25.6759 19.7927 25.7904 19.5525 25.8097L13.8114 26.2736C13.9966 24.2147 14.6465 22.2256 15.7136 20.4555H15.7108V20.4554ZM17.1563 36.5328L22.0623 33.5399C22.494 33.2759 23.0587 33.4125 23.3227 33.8442C23.4492 34.0505 23.4887 34.2989 23.4317 34.5345L22.1008 40.1427C20.2042 39.3241 18.5157 38.0903 17.159 36.5329H17.1563V36.5328ZM23.8397 40.7412L25.2147 34.9589C25.5658 33.4812 24.6528 31.999 23.1751 31.647C22.4692 31.4792 21.7259 31.5966 21.1071 31.9752L16.0343 35.0717C14.6648 33.0001 13.8857 30.5947 13.7811 28.1133L19.701 27.6348C21.2144 27.5111 22.341 26.1828 22.2172 24.6694C22.1576 23.948 21.8166 23.2789 21.2666 22.8067L16.7566 18.9384C18.3067 16.9996 20.3509 15.5146 22.6737 14.6401L24.9581 20.1245C25.542 21.527 27.1516 22.1898 28.5541 21.6059C29.2242 21.3272 29.7568 20.7946 30.0355 20.1245L32.3208 14.6401C34.6436 15.5146 36.6878 16.9996 38.2379 18.9384L33.7334 22.8067C32.5812 23.7958 32.4482 25.532 33.4373 26.6842C33.9094 27.2342 34.5795 27.5762 35.3018 27.6348L41.2216 28.1133C41.1171 30.5947 40.338 33 38.9685 35.0717L33.8892 31.9743C32.5931 31.1833 30.9 31.593 30.109 32.8891C29.7313 33.5089 29.613 34.2522 29.7817 34.9589L31.1567 40.7412C28.7652 41.4196 26.2333 41.4196 23.8417 40.7412H23.8397ZM32.8964 40.1427L31.5627 34.5345C31.4454 34.0423 31.7497 33.5482 32.2419 33.4309C32.4775 33.3749 32.725 33.4143 32.9322 33.5399L37.8382 36.5328C36.4824 38.0902 34.7948 39.324 32.8991 40.1426H32.8964V40.1427Z" fill="black"/>
<path d="M31.1666 27.5C31.1666 25.4751 29.5249 23.8334 27.5 23.8334C25.4751 23.8334 23.8334 25.4751 23.8334 27.5C23.8334 29.5249 25.4751 31.1666 27.5 31.1666C29.5249 31.1666 31.1666 29.5249 31.1666 27.5ZM27.5 29.3334C26.4871 29.3334 25.6666 28.513 25.6666 27.5C25.6666 26.4871 26.487 25.6666 27.5 25.6666C28.5129 25.6666 29.3334 26.487 29.3334 27.5C29.3334 28.5129 28.5129 29.3334 27.5 29.3334Z" fill="black"/>
<path d="M27.5 55C12.3117 55 0 42.6883 0 27.5C0 12.3117 12.3117 0 27.5 0C42.6883 0 55 12.3117 55 27.5C54.9826 42.681 42.681 54.9826 27.5 55ZM27.5 1.83337C13.3247 1.83337 1.83337 13.3247 1.83337 27.5C1.83337 41.6753 13.3247 53.1666 27.5 53.1666C41.6753 53.1666 53.1666 41.6754 53.1666 27.5C53.1502 13.3311 41.6689 1.8498 27.5 1.83337Z" fill="black"/>
</symbol><symbol id="icon-mechanics" viewBox="0 0 26 24">
<path d="M4.1944 12H21.8057" stroke="#48494D" stroke-width="1.5"/>
<path d="M4.1944 12H21.8057" stroke="#48494D" stroke-width="1.5" stroke-miterlimit="10" stroke-linecap="round" stroke-linejoin="round"/>
<path d="M13 6.52966V17.4707" stroke="#48494D" stroke-width="1.5"/>
<path d="M13 6.52966V17.4707" stroke="#48494D" stroke-width="1.5" stroke-miterlimit="10" stroke-linecap="round" stroke-linejoin="round"/>
<path d="M21.8059 6.52966V12.0003" stroke="#48494D" stroke-width="1.5"/>
<path d="M21.8059 6.52966V12.0003" stroke="#48494D" stroke-width="1.5" stroke-miterlimit="10" stroke-linecap="round" stroke-linejoin="round"/>
<path d="M4.1944 6.52966V17.4713" stroke="#48494D" stroke-width="1.5"/>
<path d="M4.1944 6.52966V17.4713" stroke="#48494D" stroke-width="1.5" stroke-miterlimit="10" stroke-linecap="round" stroke-linejoin="round"/>
<path d="M4.19432 6.5295C5.67787 6.5295 6.88052 5.32685 6.88052 3.8433C6.88052 2.35976 5.67787 1.1571 4.19432 1.1571C2.71077 1.1571 1.50812 2.35976 1.50812 3.8433C1.50812 5.32685 2.71077 6.5295 4.19432 6.5295Z" stroke="#48494D" stroke-width="1.5" stroke-miterlimit="10" stroke-linecap="round" stroke-linejoin="round"/>
<path d="M12.9999 6.5295C14.4835 6.5295 15.6861 5.32685 15.6861 3.8433C15.6861 2.35976 14.4835 1.1571 12.9999 1.1571C11.5164 1.1571 10.3137 2.35976 10.3137 3.8433C10.3137 5.32685 11.5164 6.5295 12.9999 6.5295Z" stroke="#48494D" stroke-width="1.5" stroke-miterlimit="10" stroke-linecap="round" stroke-linejoin="round"/>
<path d="M21.8061 6.5295C23.2896 6.5295 24.4923 5.32685 24.4923 3.8433C24.4923 2.35976 23.2896 1.1571 21.8061 1.1571C20.3225 1.1571 19.1199 2.35976 19.1199 3.8433C19.1199 5.32685 20.3225 6.5295 21.8061 6.5295Z" stroke="#48494D" stroke-width="1.5" stroke-miterlimit="10" stroke-linecap="round" stroke-linejoin="round"/>
<path d="M4.19432 22.8429C5.67787 22.8429 6.88052 21.6402 6.88052 20.1567C6.88052 18.6731 5.67787 17.4705 4.19432 17.4705C2.71077 17.4705 1.50812 18.6731 1.50812 20.1567C1.50812 21.6402 2.71077 22.8429 4.19432 22.8429Z" stroke="#48494D" stroke-width="1.5" stroke-miterlimit="10" stroke-linecap="round" stroke-linejoin="round"/>
<path d="M12.9999 22.8429C14.4835 22.8429 15.6861 21.6402 15.6861 20.1567C15.6861 18.6731 14.4835 17.4705 12.9999 17.4705C11.5164 17.4705 10.3137 18.6731 10.3137 20.1567C10.3137 21.6402 11.5164 22.8429 12.9999 22.8429Z" stroke="#48494D" stroke-width="1.5" stroke-miterlimit="10" stroke-linecap="round" stroke-linejoin="round"/>
</symbol><symbol id="icon-volume" viewBox="0 0 30 23">
<path d="M29.0866 8.31199C28.915 8.31199 28.7431 8.24623 28.6123 8.11521L21.8109 1.31421C21.5492 1.05217 21.5492 0.627511 21.8109 0.365477C22.073 0.103597 22.4978 0.103597 22.7598 0.365477L29.5602 7.16614C29.8222 7.42802 29.8222 7.85268 29.5602 8.11471C29.4302 8.24571 29.2602 8.31171 29.0869 8.31171" fill="#48494D"/>
<path d="M27.4738 9.92477C27.3022 9.92477 27.1304 9.85918 26.9995 9.72816L20.1988 2.92749C19.9368 2.66545 19.9368 2.24079 20.1988 1.97876C20.4609 1.71672 20.8857 1.71671 21.1477 1.97876L27.9481 8.77942C28.2101 9.04147 28.2101 9.46612 27.9481 9.72816C27.8171 9.85916 27.6454 9.92482 27.4737 9.92482" fill="#48494D"/>
<path d="M25.9287 11.4701C25.7568 11.4701 25.5852 11.4046 25.4541 11.2734L18.6537 4.47278C18.3917 4.21074 18.3917 3.78608 18.6537 3.52405C18.9158 3.26217 19.3403 3.26217 19.6023 3.52405L26.403 10.3247C26.665 10.5868 26.665 11.0115 26.403 11.2733C26.2716 11.4046 26.1003 11.4699 25.9286 11.4699" fill="#48494D"/>
<path d="M17.5466 9.25638C17.3748 9.25638 17.2032 9.19063 17.0723 9.05961C16.8103 8.79773 16.8103 8.37307 17.0723 8.11104L19.9499 5.23328C20.212 4.9714 20.6365 4.9714 20.8985 5.23328C21.1605 5.49532 21.1605 5.91998 20.8985 6.18201L18.0205 9.05967C17.8898 9.19067 17.7178 9.25634 17.5465 9.25634" fill="#48494D"/>
<path d="M21.3414 13.0514C21.1695 13.0514 20.998 12.986 20.8671 12.8548C20.6051 12.5927 20.6051 12.1682 20.8671 11.9062L23.7447 9.02844C24.0067 8.76656 24.4315 8.76656 24.6936 9.02844C24.9556 9.29049 24.9556 9.71514 24.6936 9.97718L21.8157 12.8548C21.685 12.9861 21.513 13.0514 21.3413 13.0514" fill="#48494D"/>
<path d="M27.1684 4.6347C26.6505 5.15277 25.8106 5.15277 25.2927 4.6347C24.7745 4.11663 24.7745 3.27697 25.2927 2.75903C25.8106 2.24097 26.6504 2.24097 27.1684 2.75903C27.6864 3.27703 27.6864 4.1167 27.1684 4.6347Z" fill="#48494D"/>
<path d="M0.912909 8.3044C0.741195 8.3044 0.569475 8.23865 0.438475 8.10763C0.176595 7.84575 0.176595 7.4211 0.438475 7.15906L7.23914 0.358398C7.50135 0.0963544 7.92614 0.0963544 8.18804 0.358398C8.45009 0.620278 8.45009 1.04493 8.18804 1.30696L1.38704 8.10763C1.25604 8.23829 1.08438 8.3043 0.912709 8.3043" fill="#48494D"/>
<path d="M2.52587 9.91708C2.35416 9.91708 2.18261 9.85132 2.05157 9.7203C1.78953 9.45842 1.78953 9.0336 2.05157 8.77173L8.85224 1.97107C9.11428 1.70919 9.53894 1.70919 9.80098 1.97107C10.0629 2.23311 10.0629 2.65777 9.80098 2.9198L3.00031 9.72047C2.86931 9.85147 2.69764 9.91713 2.52597 9.91713" fill="#48494D"/>
<path d="M4.07125 11.4627C3.8997 11.4627 3.72799 11.397 3.59695 11.2661C3.33491 11.0041 3.33491 10.5794 3.59695 10.3174L10.3976 3.51672C10.6597 3.25468 11.0843 3.25468 11.3464 3.51672C11.6084 3.77877 11.6084 4.20342 11.3464 4.46529L4.54602 11.266C4.41502 11.3966 4.24302 11.4626 4.07135 11.4626" fill="#48494D"/>
<path d="M8.65815 13.0441C8.48644 13.0441 8.31472 12.9783 8.18372 12.8475L5.30579 9.96968C5.04374 9.7078 5.04374 9.28298 5.30579 9.02112C5.56816 8.75907 5.99278 8.75907 6.25485 9.02112L9.13245 11.8989C9.39449 12.1606 9.39449 12.5857 9.13245 12.8475C9.00145 12.9785 8.82978 13.0441 8.65812 13.0441" fill="#48494D"/>
<path d="M12.4535 9.24878C12.2818 9.24878 12.1101 9.18318 11.9791 9.05216L9.10117 6.1744C8.83912 5.91252 8.83912 5.4877 9.10117 5.22583C9.36354 4.96379 9.78816 4.96379 10.0502 5.22583L12.9278 8.10343C13.1899 8.36547 13.1899 8.79013 12.9278 9.05216C12.7968 9.18316 12.6248 9.24883 12.4535 9.24883" fill="#48494D"/>
<path d="M4.70761 2.75141C5.22551 3.26931 5.22551 4.10901 4.70761 4.62708C4.18954 5.14498 3.34987 5.14498 2.83194 4.62708C2.31387 4.10901 2.31387 3.26935 2.83194 2.75141C3.34961 2.23342 4.18927 2.23342 4.70761 2.75141Z" fill="#48494D"/>
<path d="M15.004 22.418C13.0839 22.418 11.1637 21.6872 9.70199 20.2253C6.77866 17.3018 6.77866 12.545 9.70199 9.62134C12.6257 6.69734 17.3827 6.69734 20.306 9.62134C23.2298 12.5448 23.2298 17.3017 20.306 20.2253C18.844 21.6873 16.924 22.418 15.004 22.418V22.418ZM15.004 8.77001C13.4272 8.77001 11.8508 9.36995 10.651 10.5703C8.25059 12.9705 8.25059 16.8763 10.651 19.2766C13.0512 21.677 16.9567 21.677 19.3573 19.2766C21.7577 16.8766 21.7577 12.9706 19.3573 10.5703C18.1573 9.36998 16.58 8.76998 15.004 8.76998V8.77001ZM19.8313 19.751H19.8326H19.8313H19.8313Z" fill="#48494D"/>
<path d="M7.09021 17.5423H5.82051C4.89441 17.5423 4.14081 16.7891 4.14081 15.8626V13.9675C4.14081 13.0414 4.89437 12.2881 5.82051 12.2881H7.09021C8.01647 12.2881 8.76974 13.0414 8.76974 13.9675V15.8626C8.76974 16.789 8.01641 17.5423 7.09007 17.5423L7.09021 17.5423ZM5.82041 13.6296C5.6373 13.6296 5.48267 13.7842 5.48267 13.9675V15.8627C5.48267 16.046 5.6373 16.2003 5.82041 16.2003H7.09011C7.27337 16.2003 7.42801 16.046 7.42801 15.8627V13.9675C7.42801 13.7843 7.27338 13.6296 7.09011 13.6296H5.82044H5.82041Z" fill="#48494D"/>
</symbol></svg>